<svg width="41" height="20" viewBox="0 0 41 20" fill="none" xmlns="http://www.w3.org/2000/svg">
<path d="M9.28678 0.792499H8.27428C4.29178 0.792499 0.91678 5.01125 0.91678 10.2087C0.91678 15.4062 4.29178 19.625 8.27428 19.625H9.28678V16.4525H8.27428C5.67553 16.4525 4.12303 13.5837 4.12303 10.2087C4.12303 6.83375 5.67553 3.965 8.27428 3.965H9.28678V0.792499ZM28.2252 6.0575C28.2252 2.48 25.9639 0.522499 21.4752 0.522499C17.8302 0.522499 13.2064 2.1425 13.2064 2.1425L13.4764 5.6525C13.4764 5.6525 17.4927 3.66125 20.4627 3.66125C23.9052 3.66125 24.4789 4.40375 24.4789 6.22625C24.4789 8.04875 23.8039 8.6225 19.9564 8.6225H16.2439V11.8287H19.9564C23.8039 11.8287 24.4789 12.4025 24.4789 14.225C24.4789 16.0475 23.9052 16.79 20.4627 16.79C16.1089 16.79 12.8014 14.2587 12.8014 14.2587L12.4977 18.0387C12.4977 18.0387 15.6027 19.9288 21.4752 19.9288C25.9639 19.9288 28.2252 17.9712 28.2252 14.3937C28.2252 12.605 27.9214 11.1537 26.7064 10.175C27.8539 9.19625 28.2252 7.8125 28.2252 6.0575ZM32.7713 0.792499H31.7588V3.965H32.7713C35.37 3.965 36.9225 6.83375 36.9225 10.2087C36.9225 13.5837 35.37 16.4525 32.7713 16.4525H31.7588V19.625H32.7713C36.7538 19.625 40.1288 15.4062 40.1288 10.2087C40.1288 5.01125 36.7538 0.792499 32.7713 0.792499Z" fill="#2A3334"/>
</svg>
