<svg width="404" height="31" viewBox="0 0 404 31" fill="none" xmlns="http://www.w3.org/2000/svg">
<line x1="79.9375" y1="15.25" x2="347.125" y2="15.25" stroke="#ECECEC" stroke-width="3.75"/>
<line x1="79.9375" y1="15.25" x2="187.75" y2="15.25" stroke="#526F75" stroke-width="3.75"/>
<path d="M380.935 6.3275C376.705 6.3275 374.095 8.5775 374.095 12.8075C374.095 17.015 376.705 19.265 380.935 19.265C385.165 19.265 387.798 17.015 387.798 12.8075C387.798 8.5775 385.165 6.3275 380.935 6.3275ZM384.445 12.8075C384.445 15.3725 383.905 16.3175 380.935 16.3175C377.965 16.3175 377.425 15.3725 377.425 12.8075C377.425 10.22 377.965 9.275 380.935 9.275C383.905 9.275 384.445 10.22 384.445 12.8075ZM400.566 6.5075H397.529L389.991 14.0675V16.7225H397.304V19.085H400.566V16.7225H402.276V13.865H400.566V6.5075ZM394.334 13.8425L397.304 10.8725V13.8425H394.334Z" fill="white"/>
<path d="M11.59 4.1475C5.245 4.1475 1.33 7.5225 1.33 13.8675C1.33 20.1787 5.245 23.5538 11.59 23.5538C17.935 23.5538 21.8838 20.1787 21.8838 13.8675C21.8838 7.5225 17.935 4.1475 11.59 4.1475ZM16.855 13.8675C16.855 17.715 16.045 19.1325 11.59 19.1325C7.135 19.1325 6.325 17.715 6.325 13.8675C6.325 9.98625 7.135 8.56875 11.59 8.56875C16.045 8.56875 16.855 9.98625 16.855 13.8675ZM34.8642 4.4175H29.9367V4.9575C29.9367 7.32 27.7767 8.36625 25.7854 8.36625H25.2117V12.99H25.7854C27.7092 12.99 29.0929 12.3487 29.9367 11.775V18.9637H25.1104V23.2838H39.7242V18.9637H34.8642V4.4175Z" fill="white"/>
</svg>
