<svg width="101" height="14" viewBox="0 0 101 14" fill="none" xmlns="http://www.w3.org/2000/svg">
<path d="M0.66625 3.70875H4.94125V13.4062H8.20375V3.70875H12.5013V0.851249H0.66625V3.70875ZM29.7877 9.91875L25.4452 0.851249H22.0927V13.4288H25.1752V7.15125L28.1677 13.4288H31.4077L34.4002 7.15125V13.4288H37.4827V0.851249H34.1302L29.7877 9.91875ZM51.2214 8.43375H57.4989V5.57625H51.2214V3.70875H59.0739V0.851249H47.9589V13.4288H59.2989V10.5487H51.2214V8.43375ZM72.5394 0.851249H69.2769V13.4288H79.6719V10.5487H72.5394V0.851249ZM91.4469 8.54625V13.4062H94.7094V8.54625L100.312 0.851249H96.5994L93.0669 5.66625L89.5569 0.851249H85.8444L91.4469 8.54625Z" fill="white"/>
</svg>
